<svg xmlns="http://www.w3.org/2000/svg" width="876" height="466" viewBox="0 0 876 466">
  <g id="Grupo_33028" data-name="Grupo 33028" transform="translate(-522 -2911)">
    <path id="Trazado_71700" data-name="Trazado 71700" d="M0,0H283V58H0Z" transform="translate(1115 2911)" fill="#d98ba7"/>
    <path id="Trazado_71682" data-name="Trazado 71682" d="M0,0H286V58H0Z" transform="translate(522 2911)" fill="#d98ba7"/>
    <path id="Trazado_71687" data-name="Trazado 71687" d="M0,0H286V58H0Z" transform="translate(818 2911)" fill="#d98ba7"/>
    <g id="Trazado_71701" data-name="Trazado 71701" transform="translate(1115 2975)" fill="none">
      <path d="M0,0H283V86H0Z" stroke="none"/>
      <path d="M 1 1 L 1 85 L 282 85 L 282 1 L 1 1 M 0 0 L 283 0 L 283 86 L 0 86 L 0 0 Z" stroke="none" fill="#bf5630"/>
    </g>
    <g id="Trazado_71683" data-name="Trazado 71683" transform="translate(522 2975)" fill="none">
      <path d="M0,0H286V40H0Z" stroke="none"/>
      <path d="M 1 1 L 1 39 L 285 39 L 285 1 L 1 1 M 0 0 L 286 0 L 286 40 L 0 40 L 0 0 Z" stroke="none" fill="#bf5630"/>
    </g>
    <g id="Trazado_71688" data-name="Trazado 71688" transform="translate(818 2975)" fill="none">
      <path d="M0,0H286V40H0Z" stroke="none"/>
      <path d="M 1 1 L 1 39 L 285 39 L 285 1 L 1 1 M 0 0 L 286 0 L 286 40 L 0 40 L 0 0 Z" stroke="none" fill="#bf5630"/>
    </g>
    <g id="Trazado_71702" data-name="Trazado 71702" transform="translate(1115 3067)" fill="none">
      <path d="M0,0H283V84H0Z" stroke="none"/>
      <path d="M 1 1 L 1 83 L 282 83 L 282 1 L 1 1 M 0 0 L 283 0 L 283 84 L 0 84 L 0 0 Z" stroke="none" fill="#bf5630"/>
    </g>
    <g id="Trazado_71685" data-name="Trazado 71685" transform="translate(522 3067)" fill="none">
      <path d="M0,0H286V40H0Z" stroke="none"/>
      <path d="M 1 1 L 1 39 L 285 39 L 285 1 L 1 1 M 0 0 L 286 0 L 286 40 L 0 40 L 0 0 Z" stroke="none" fill="#bf5630"/>
    </g>
    <g id="Trazado_71689" data-name="Trazado 71689" transform="translate(818 3067)" fill="none">
      <path d="M0,0H286V40H0Z" stroke="none"/>
      <path d="M 1 1 L 1 39 L 285 39 L 285 1 L 1 1 M 0 0 L 286 0 L 286 40 L 0 40 L 0 0 Z" stroke="none" fill="#bf5630"/>
    </g>
    <g id="Trazado_71703" data-name="Trazado 71703" transform="translate(1115 3157)" fill="none">
      <path d="M0,0H283V220H0Z" stroke="none"/>
      <path d="M 1 1 L 1 219 L 282 219 L 282 1 L 1 1 M 0 0 L 283 0 L 283 220 L 0 220 L 0 0 Z" stroke="none" fill="#bf5630"/>
    </g>
    <g id="Trazado_71690" data-name="Trazado 71690" transform="translate(522 3157)" fill="none">
      <path d="M0,0H286V40H0Z" stroke="none"/>
      <path d="M 1 1 L 1 39 L 285 39 L 285 1 L 1 1 M 0 0 L 286 0 L 286 40 L 0 40 L 0 0 Z" stroke="none" fill="#bf5630"/>
    </g>
    <g id="Trazado_71691" data-name="Trazado 71691" transform="translate(818 3157)" fill="none">
      <path d="M0,0H286V40H0Z" stroke="none"/>
      <path d="M 1 1 L 1 39 L 285 39 L 285 1 L 1 1 M 0 0 L 286 0 L 286 40 L 0 40 L 0 0 Z" stroke="none" fill="#bf5630"/>
    </g>
    <g id="Trazado_71696" data-name="Trazado 71696" transform="translate(522 3203)" fill="none">
      <path d="M0,0H286V40H0Z" stroke="none"/>
      <path d="M 1 1 L 1 39 L 285 39 L 285 1 L 1 1 M 0 0 L 286 0 L 286 40 L 0 40 L 0 0 Z" stroke="none" fill="#bf5630"/>
    </g>
    <g id="Trazado_71697" data-name="Trazado 71697" transform="translate(818 3203)" fill="none">
      <path d="M0,0H286V40H0Z" stroke="none"/>
      <path d="M 1 1 L 1 39 L 285 39 L 285 1 L 1 1 M 0 0 L 286 0 L 286 40 L 0 40 L 0 0 Z" stroke="none" fill="#bf5630"/>
    </g>
    <g id="Trazado_71704" data-name="Trazado 71704" transform="translate(522 3250)" fill="none">
      <path d="M0,0H286V40H0Z" stroke="none"/>
      <path d="M 1 1 L 1 39 L 285 39 L 285 1 L 1 1 M 0 0 L 286 0 L 286 40 L 0 40 L 0 0 Z" stroke="none" fill="#bf5630"/>
    </g>
    <g id="Trazado_71705" data-name="Trazado 71705" transform="translate(818 3250)" fill="none">
      <path d="M0,0H286V40H0Z" stroke="none"/>
      <path d="M 1 1 L 1 39 L 285 39 L 285 1 L 1 1 M 0 0 L 286 0 L 286 40 L 0 40 L 0 0 Z" stroke="none" fill="#bf5630"/>
    </g>
    <g id="Trazado_71708" data-name="Trazado 71708" transform="translate(522 3296)" fill="none">
      <path d="M0,0H286V37H0Z" stroke="none"/>
      <path d="M 1 1 L 1 36 L 285 36 L 285 1 L 1 1 M 0 0 L 286 0 L 286 37 L 0 37 L 0 0 Z" stroke="none" fill="#bf5630"/>
    </g>
    <g id="Trazado_71712" data-name="Trazado 71712" transform="translate(522 3340)" fill="none">
      <path d="M0,0H286V37H0Z" stroke="none"/>
      <path d="M 1 1 L 1 36 L 285 36 L 285 1 L 1 1 M 0 0 L 286 0 L 286 37 L 0 37 L 0 0 Z" stroke="none" fill="#bf5630"/>
    </g>
    <g id="Trazado_71709" data-name="Trazado 71709" transform="translate(818 3296)" fill="none">
      <path d="M0,0H286V37H0Z" stroke="none"/>
      <path d="M 1 1 L 1 36 L 285 36 L 285 1 L 1 1 M 0 0 L 286 0 L 286 37 L 0 37 L 0 0 Z" stroke="none" fill="#bf5630"/>
    </g>
    <g id="Trazado_71713" data-name="Trazado 71713" transform="translate(818 3340)" fill="none">
      <path d="M0,0H286V37H0Z" stroke="none"/>
      <path d="M 1 1 L 1 36 L 285 36 L 285 1 L 1 1 M 0 0 L 286 0 L 286 37 L 0 37 L 0 0 Z" stroke="none" fill="#bf5630"/>
    </g>
    <g id="Trazado_71684" data-name="Trazado 71684" transform="translate(522 3021)" fill="none">
      <path d="M0,0H286V40H0Z" stroke="none"/>
      <path d="M 1 1 L 1 39 L 285 39 L 285 1 L 1 1 M 0 0 L 286 0 L 286 40 L 0 40 L 0 0 Z" stroke="none" fill="#bf5630"/>
    </g>
    <g id="Trazado_71692" data-name="Trazado 71692" transform="translate(818 3021)" fill="none">
      <path d="M0,0H286V40H0Z" stroke="none"/>
      <path d="M 1 1 L 1 39 L 285 39 L 285 1 L 1 1 M 0 0 L 286 0 L 286 40 L 0 40 L 0 0 Z" stroke="none" fill="#bf5630"/>
    </g>
    <g id="Trazado_71686" data-name="Trazado 71686" transform="translate(522 3113)" fill="none">
      <path d="M0,0H286V38H0Z" stroke="none"/>
      <path d="M 1 1 L 1 37 L 285 37 L 285 1 L 1 1 M 0 0 L 286 0 L 286 38 L 0 38 L 0 0 Z" stroke="none" fill="#bf5630"/>
    </g>
    <g id="Trazado_71693" data-name="Trazado 71693" transform="translate(818 3113)" fill="none">
      <path d="M0,0H286V38H0Z" stroke="none"/>
      <path d="M 1 1 L 1 37 L 285 37 L 285 1 L 1 1 M 0 0 L 286 0 L 286 38 L 0 38 L 0 0 Z" stroke="none" fill="#bf5630"/>
    </g>
    <path id="Trazado_71670" data-name="Trazado 71670" d="M60.206,19,57.112,8.919h-.079q.167,3.076.167,4.1V19H54.766V6.15h3.709l3.041,9.826h.053L64.794,6.15H68.5V19h-2.54V12.918q0-.431.013-.993t.119-2.988h-.079L62.7,19Zm17.561,0-.519-1.336h-.07a3.959,3.959,0,0,1-1.393,1.182,4.5,4.5,0,0,1-1.868.33,3.02,3.02,0,0,1-2.228-.809,3.105,3.105,0,0,1-.813-2.3,2.593,2.593,0,0,1,1.094-2.307,6.341,6.341,0,0,1,3.3-.822l1.705-.053v-.431a1.336,1.336,0,0,0-1.529-1.494,6.969,6.969,0,0,0-2.769.712L71.79,9.859a7.988,7.988,0,0,1,3.762-.888,4.686,4.686,0,0,1,3.032.861,3.183,3.183,0,0,1,1.055,2.619V19Zm-.791-4.553-1.037.035a3.321,3.321,0,0,0-1.74.422,1.325,1.325,0,0,0-.571,1.178q0,1.134,1.3,1.134a2.06,2.06,0,0,0,1.49-.536,1.883,1.883,0,0,0,.558-1.424Zm9.563,2.593a5.811,5.811,0,0,0,1.688-.308v2a6.017,6.017,0,0,1-2.461.448,3.012,3.012,0,0,1-2.342-.813,3.539,3.539,0,0,1-.734-2.439V11.187H81.405V10.053l1.477-.9.773-2.074h1.714V9.174H88.12v2.013H85.369v4.737a1.046,1.046,0,0,0,.321.844A1.266,1.266,0,0,0,86.538,17.04ZM94.281,10.9a1.7,1.7,0,0,0-1.336.541,2.5,2.5,0,0,0-.554,1.534h3.762a2.235,2.235,0,0,0-.519-1.534A1.756,1.756,0,0,0,94.281,10.9Zm.378,8.279a5.072,5.072,0,0,1-3.709-1.31,4.959,4.959,0,0,1-1.336-3.709,5.454,5.454,0,0,1,1.235-3.819,4.4,4.4,0,0,1,3.415-1.349,4.328,4.328,0,0,1,3.243,1.187,4.489,4.489,0,0,1,1.16,3.278v1.3H92.33a2.58,2.58,0,0,0,.677,1.784,2.381,2.381,0,0,0,1.775.642A7.37,7.37,0,0,0,96.461,17a8.4,8.4,0,0,0,1.652-.589v2.074a6.294,6.294,0,0,1-1.5.523A9.476,9.476,0,0,1,94.659,19.176ZM106.331,8.989a4.323,4.323,0,0,1,.905.079l-.2,2.514a3.071,3.071,0,0,0-.791-.088,2.843,2.843,0,0,0-2,.659A2.383,2.383,0,0,0,103.527,14v5h-2.681V9.174h2.03l.4,1.652h.132a3.694,3.694,0,0,1,1.235-1.332A3.045,3.045,0,0,1,106.331,8.989Zm2.575-2.355q0-1.31,1.459-1.31t1.459,1.31a1.277,1.277,0,0,1-.365.971,1.533,1.533,0,0,1-1.094.347Q108.906,7.952,108.906,6.634ZM111.7,19h-2.681V9.174H111.7Zm9.053,0-.519-1.336h-.07a3.959,3.959,0,0,1-1.393,1.182,4.5,4.5,0,0,1-1.868.33,3.02,3.02,0,0,1-2.228-.809,3.105,3.105,0,0,1-.813-2.3,2.593,2.593,0,0,1,1.094-2.307,6.341,6.341,0,0,1,3.3-.822l1.705-.053v-.431a1.336,1.336,0,0,0-1.529-1.494,6.969,6.969,0,0,0-2.769.712l-.888-1.811a7.988,7.988,0,0,1,3.762-.888,4.686,4.686,0,0,1,3.032.861,3.183,3.183,0,0,1,1.055,2.619V19Zm-.791-4.553-1.037.035a3.321,3.321,0,0,0-1.74.422,1.325,1.325,0,0,0-.571,1.178q0,1.134,1.3,1.134a2.06,2.06,0,0,0,1.49-.536,1.883,1.883,0,0,0,.558-1.424Zm8.1,4.553h-2.681V5.324h2.681Zm13.729,0-.519-1.336h-.07a3.959,3.959,0,0,1-1.393,1.182,4.5,4.5,0,0,1-1.868.33,3.02,3.02,0,0,1-2.228-.809,3.105,3.105,0,0,1-.813-2.3A2.593,2.593,0,0,1,136,13.757a6.341,6.341,0,0,1,3.3-.822L141,12.883v-.431a1.336,1.336,0,0,0-1.529-1.494,6.969,6.969,0,0,0-2.769.712l-.888-1.811a7.988,7.988,0,0,1,3.762-.888,4.686,4.686,0,0,1,3.032.861,3.183,3.183,0,0,1,1.055,2.619V19ZM141,14.447l-1.037.035a3.321,3.321,0,0,0-1.74.422,1.325,1.325,0,0,0-.571,1.178q0,1.134,1.3,1.134a2.06,2.06,0,0,0,1.49-.536A1.883,1.883,0,0,0,141,15.256Zm14.089,4.729q-4.588,0-4.588-5.036a5.372,5.372,0,0,1,1.248-3.828,4.682,4.682,0,0,1,3.577-1.323,6.819,6.819,0,0,1,3.059.668l-.791,2.074q-.633-.255-1.178-.417a3.8,3.8,0,0,0-1.09-.163q-2.092,0-2.092,2.971,0,2.883,2.092,2.883a4.769,4.769,0,0,0,1.433-.207,5.173,5.173,0,0,0,1.318-.646v2.294a4.32,4.32,0,0,1-1.314.571A7.389,7.389,0,0,1,155.093,19.176Zm7.4-5.106a4.124,4.124,0,0,0,.479,2.206,1.713,1.713,0,0,0,1.56.747,1.686,1.686,0,0,0,1.542-.743,4.183,4.183,0,0,0,.47-2.21,4.059,4.059,0,0,0-.475-2.188,2.018,2.018,0,0,0-3.1,0A4.055,4.055,0,0,0,162.493,14.069Zm6.794,0a5.28,5.28,0,0,1-1.266,3.753,4.589,4.589,0,0,1-3.524,1.354,4.93,4.93,0,0,1-2.5-.62,4.123,4.123,0,0,1-1.661-1.78,5.981,5.981,0,0,1-.58-2.707,5.251,5.251,0,0,1,1.257-3.744,4.616,4.616,0,0,1,3.533-1.336,4.958,4.958,0,0,1,2.5.615,4.106,4.106,0,0,1,1.661,1.767A5.925,5.925,0,0,1,169.287,14.069Zm9.07,2.013a2.705,2.705,0,0,1-1.05,2.3,5.19,5.19,0,0,1-3.142.791,9.869,9.869,0,0,1-1.828-.145,6.915,6.915,0,0,1-1.415-.426V16.39a9.345,9.345,0,0,0,1.683.589,6.815,6.815,0,0,0,1.648.237q1.459,0,1.459-.844a.7.7,0,0,0-.193-.514,2.8,2.8,0,0,0-.668-.448q-.475-.25-1.266-.584a7.951,7.951,0,0,1-1.666-.879,2.474,2.474,0,0,1-.773-.927,3.061,3.061,0,0,1-.242-1.288,2.334,2.334,0,0,1,1.015-2.026,4.945,4.945,0,0,1,2.878-.716,8.17,8.17,0,0,1,3.454.773l-.809,1.934q-.738-.316-1.38-.519a4.333,4.333,0,0,0-1.31-.2q-1.187,0-1.187.642a.754.754,0,0,0,.382.624,10.4,10.4,0,0,0,1.674.782,7.778,7.778,0,0,1,1.688.87,2.573,2.573,0,0,1,.791.932A2.863,2.863,0,0,1,178.357,16.082Zm6.161-5.186a1.7,1.7,0,0,0-1.336.541,2.5,2.5,0,0,0-.554,1.534h3.762a2.235,2.235,0,0,0-.519-1.534A1.756,1.756,0,0,0,184.519,10.9Zm.378,8.279a5.072,5.072,0,0,1-3.709-1.31,4.959,4.959,0,0,1-1.336-3.709,5.454,5.454,0,0,1,1.235-3.819A4.4,4.4,0,0,1,184.5,8.989a4.328,4.328,0,0,1,3.243,1.187,4.489,4.489,0,0,1,1.16,3.278v1.3h-6.337a2.58,2.58,0,0,0,.677,1.784,2.381,2.381,0,0,0,1.775.642A7.37,7.37,0,0,0,186.7,17a8.4,8.4,0,0,0,1.652-.589v2.074a6.294,6.294,0,0,1-1.5.523A9.476,9.476,0,0,1,184.9,19.176ZM196.568,8.989a4.323,4.323,0,0,1,.905.079l-.2,2.514a3.071,3.071,0,0,0-.791-.088,2.843,2.843,0,0,0-2,.659A2.383,2.383,0,0,0,193.765,14v5h-2.681V9.174h2.03l.4,1.652h.132a3.694,3.694,0,0,1,1.235-1.332A3.045,3.045,0,0,1,196.568,8.989Z" transform="translate(1131 2928)" fill="#fff"/>
    <path id="Trazado_71668" data-name="Trazado 71668" d="M50.214,15.432a3.322,3.322,0,0,1-1.252,2.742,5.441,5.441,0,0,1-3.485,1,8.184,8.184,0,0,1-3.639-.773V15.871a15,15,0,0,0,2.2.817,6.515,6.515,0,0,0,1.648.237,2.343,2.343,0,0,0,1.375-.343,1.172,1.172,0,0,0,.479-1.02,1.125,1.125,0,0,0-.211-.672,2.36,2.36,0,0,0-.62-.567,15.936,15.936,0,0,0-1.666-.87,7.894,7.894,0,0,1-1.767-1.063,3.992,3.992,0,0,1-.94-1.187,3.386,3.386,0,0,1-.352-1.582,3.321,3.321,0,0,1,1.156-2.681,4.8,4.8,0,0,1,3.195-.976A7.544,7.544,0,0,1,48.25,6.2a13.14,13.14,0,0,1,1.9.668l-.879,2.118a12.859,12.859,0,0,0-1.7-.589,5.474,5.474,0,0,0-1.323-.167,1.752,1.752,0,0,0-1.187.36,1.189,1.189,0,0,0-.413.94,1.164,1.164,0,0,0,.167.628,1.836,1.836,0,0,0,.532.519,16.441,16.441,0,0,0,1.727.9,6.872,6.872,0,0,1,2.47,1.727A3.371,3.371,0,0,1,50.214,15.432Zm2-8.8q0-1.31,1.459-1.31t1.459,1.31a1.277,1.277,0,0,1-.365.971,1.533,1.533,0,0,1-1.094.347Q52.218,7.952,52.218,6.634ZM55.013,19H52.333V9.174h2.681Zm9.668-2.918a2.705,2.705,0,0,1-1.05,2.3,5.19,5.19,0,0,1-3.142.791,9.869,9.869,0,0,1-1.828-.145,6.915,6.915,0,0,1-1.415-.426V16.39a9.345,9.345,0,0,0,1.683.589,6.815,6.815,0,0,0,1.648.237q1.459,0,1.459-.844a.7.7,0,0,0-.193-.514,2.8,2.8,0,0,0-.668-.448q-.475-.25-1.266-.584a7.951,7.951,0,0,1-1.666-.879,2.474,2.474,0,0,1-.773-.927,3.061,3.061,0,0,1-.242-1.288,2.334,2.334,0,0,1,1.015-2.026,4.945,4.945,0,0,1,2.878-.716,8.17,8.17,0,0,1,3.454.773L63.767,11.7q-.738-.316-1.38-.519a4.333,4.333,0,0,0-1.31-.2q-1.187,0-1.187.642a.754.754,0,0,0,.382.624,10.4,10.4,0,0,0,1.674.782,7.778,7.778,0,0,1,1.688.87,2.573,2.573,0,0,1,.791.932A2.863,2.863,0,0,1,64.681,16.082Zm6.231.958a5.811,5.811,0,0,0,1.688-.308v2a6.017,6.017,0,0,1-2.461.448,3.012,3.012,0,0,1-2.342-.813,3.539,3.539,0,0,1-.734-2.439V11.187H65.78V10.053l1.477-.9.773-2.074h1.714V9.174h2.751v2.013H69.744v4.737a1.046,1.046,0,0,0,.321.844A1.266,1.266,0,0,0,70.913,17.04ZM78.656,10.9a1.7,1.7,0,0,0-1.336.541,2.5,2.5,0,0,0-.554,1.534h3.762a2.235,2.235,0,0,0-.519-1.534A1.756,1.756,0,0,0,78.656,10.9Zm.378,8.279a5.072,5.072,0,0,1-3.709-1.31,4.959,4.959,0,0,1-1.336-3.709,5.454,5.454,0,0,1,1.235-3.819,4.4,4.4,0,0,1,3.415-1.349,4.328,4.328,0,0,1,3.243,1.187,4.489,4.489,0,0,1,1.16,3.278v1.3H76.7a2.58,2.58,0,0,0,.677,1.784,2.381,2.381,0,0,0,1.775.642A7.37,7.37,0,0,0,80.835,17a8.4,8.4,0,0,0,1.652-.589v2.074a6.294,6.294,0,0,1-1.5.523A9.476,9.476,0,0,1,79.034,19.176ZM94.019,19H91.338V13.261a2.891,2.891,0,0,0-.356-1.6,1.252,1.252,0,0,0-1.121-.532,1.623,1.623,0,0,0-1.494.756,4.958,4.958,0,0,0-.466,2.487V19H85.221V9.174h2.048l.36,1.257h.149a2.724,2.724,0,0,1,1.143-1.059,3.71,3.71,0,0,1,1.714-.382,3.087,3.087,0,0,1,2.988,1.441h.237a2.655,2.655,0,0,1,1.165-1.063,3.884,3.884,0,0,1,1.736-.378,3.426,3.426,0,0,1,2.527.857,3.763,3.763,0,0,1,.857,2.747V19H97.456V13.261a2.891,2.891,0,0,0-.356-1.6,1.252,1.252,0,0,0-1.121-.532,1.672,1.672,0,0,0-1.472.7,3.99,3.99,0,0,0-.488,2.232Zm15.117,0-.519-1.336h-.07a3.959,3.959,0,0,1-1.393,1.182,4.5,4.5,0,0,1-1.868.33,3.02,3.02,0,0,1-2.228-.809,3.105,3.105,0,0,1-.813-2.3,2.593,2.593,0,0,1,1.094-2.307,6.341,6.341,0,0,1,3.3-.822l1.705-.053v-.431a1.336,1.336,0,0,0-1.529-1.494,6.969,6.969,0,0,0-2.769.712l-.888-1.811a7.988,7.988,0,0,1,3.762-.888,4.686,4.686,0,0,1,3.032.861,3.183,3.183,0,0,1,1.055,2.619V19Zm-.791-4.553-1.037.035a3.321,3.321,0,0,0-1.74.422A1.325,1.325,0,0,0,105,16.082q0,1.134,1.3,1.134a2.06,2.06,0,0,0,1.49-.536,1.883,1.883,0,0,0,.558-1.424ZM124.684,19l-.519-1.336h-.07a3.959,3.959,0,0,1-1.393,1.182,4.5,4.5,0,0,1-1.868.33,3.02,3.02,0,0,1-2.228-.809,3.105,3.105,0,0,1-.813-2.3,2.593,2.593,0,0,1,1.094-2.307,6.341,6.341,0,0,1,3.3-.822l1.705-.053v-.431a1.336,1.336,0,0,0-1.529-1.494,6.969,6.969,0,0,0-2.769.712l-.888-1.811a7.988,7.988,0,0,1,3.762-.888,4.686,4.686,0,0,1,3.032.861,3.183,3.183,0,0,1,1.055,2.619V19Zm-.791-4.553-1.037.035a3.321,3.321,0,0,0-1.74.422,1.325,1.325,0,0,0-.571,1.178q0,1.134,1.3,1.134a2.06,2.06,0,0,0,1.49-.536,1.883,1.883,0,0,0,.558-1.424ZM138.114,19h-2.681V13.261a2.891,2.891,0,0,0-.356-1.6,1.252,1.252,0,0,0-1.121-.532,1.623,1.623,0,0,0-1.494.756A4.958,4.958,0,0,0,132,14.377V19h-2.681V9.174h2.048l.36,1.257h.149a2.724,2.724,0,0,1,1.143-1.059,3.71,3.71,0,0,1,1.714-.382,3.087,3.087,0,0,1,2.988,1.441h.237a2.655,2.655,0,0,1,1.165-1.063,3.884,3.884,0,0,1,1.736-.378,3.426,3.426,0,0,1,2.527.857,3.763,3.763,0,0,1,.857,2.747V19H141.55V13.261a2.891,2.891,0,0,0-.356-1.6,1.252,1.252,0,0,0-1.121-.532,1.672,1.672,0,0,0-1.472.7,3.99,3.99,0,0,0-.488,2.232Zm12.946-8.1a1.7,1.7,0,0,0-1.336.541,2.5,2.5,0,0,0-.554,1.534h3.762a2.235,2.235,0,0,0-.519-1.534A1.756,1.756,0,0,0,151.06,10.9Zm.378,8.279a5.072,5.072,0,0,1-3.709-1.31,4.959,4.959,0,0,1-1.336-3.709,5.454,5.454,0,0,1,1.235-3.819,4.4,4.4,0,0,1,3.415-1.349,4.328,4.328,0,0,1,3.243,1.187,4.489,4.489,0,0,1,1.16,3.278v1.3h-6.337a2.58,2.58,0,0,0,.677,1.784,2.381,2.381,0,0,0,1.775.642A7.37,7.37,0,0,0,153.24,17a8.4,8.4,0,0,0,1.652-.589v2.074a6.294,6.294,0,0,1-1.5.523A9.476,9.476,0,0,1,151.438,19.176ZM163.11,8.989a4.323,4.323,0,0,1,.905.079l-.2,2.514a3.071,3.071,0,0,0-.791-.088,2.843,2.843,0,0,0-2,.659A2.383,2.383,0,0,0,160.306,14v5h-2.681V9.174h2.03l.4,1.652h.132a3.694,3.694,0,0,1,1.235-1.332A3.045,3.045,0,0,1,163.11,8.989Zm2.575-2.355q0-1.31,1.459-1.31t1.459,1.31a1.277,1.277,0,0,1-.365.971,1.533,1.533,0,0,1-1.094.347Q165.685,7.952,165.685,6.634ZM168.48,19H165.8V9.174h2.681Zm6.8.176q-4.588,0-4.588-5.036a5.372,5.372,0,0,1,1.248-3.828,4.682,4.682,0,0,1,3.577-1.323,6.819,6.819,0,0,1,3.059.668l-.791,2.074q-.633-.255-1.178-.417a3.8,3.8,0,0,0-1.09-.163q-2.092,0-2.092,2.971,0,2.883,2.092,2.883a4.769,4.769,0,0,0,1.433-.207,5.173,5.173,0,0,0,1.318-.646v2.294a4.32,4.32,0,0,1-1.314.571A7.389,7.389,0,0,1,175.283,19.176Zm11.5-.176-.519-1.336h-.07a3.959,3.959,0,0,1-1.393,1.182,4.5,4.5,0,0,1-1.868.33,3.02,3.02,0,0,1-2.228-.809,3.105,3.105,0,0,1-.813-2.3,2.593,2.593,0,0,1,1.094-2.307,6.341,6.341,0,0,1,3.3-.822L186,12.883v-.431a1.336,1.336,0,0,0-1.529-1.494,6.969,6.969,0,0,0-2.769.712l-.888-1.811a7.988,7.988,0,0,1,3.762-.888,4.686,4.686,0,0,1,3.032.861,3.183,3.183,0,0,1,1.055,2.619V19ZM186,14.447l-1.037.035a3.321,3.321,0,0,0-1.74.422,1.325,1.325,0,0,0-.571,1.178q0,1.134,1.3,1.134a2.06,2.06,0,0,0,1.49-.536A1.883,1.883,0,0,0,186,15.256ZM200.49,19h-2.681V13.261a2.757,2.757,0,0,0-.378-1.6,1.375,1.375,0,0,0-1.2-.532,1.81,1.81,0,0,0-1.626.751,4.661,4.661,0,0,0-.5,2.492V19h-2.681V9.174h2.048l.36,1.257h.149a2.833,2.833,0,0,1,1.235-1.077A4.2,4.2,0,0,1,197,8.989a3.436,3.436,0,0,1,2.6.927,3.721,3.721,0,0,1,.888,2.676Zm4.9-4.931a4.124,4.124,0,0,0,.479,2.206,1.713,1.713,0,0,0,1.56.747,1.686,1.686,0,0,0,1.542-.743,4.183,4.183,0,0,0,.47-2.21,4.059,4.059,0,0,0-.475-2.188,2.018,2.018,0,0,0-3.1,0A4.055,4.055,0,0,0,205.385,14.069Zm6.794,0a5.28,5.28,0,0,1-1.266,3.753,4.589,4.589,0,0,1-3.524,1.354,4.93,4.93,0,0,1-2.5-.62,4.123,4.123,0,0,1-1.661-1.78,5.981,5.981,0,0,1-.58-2.707,5.251,5.251,0,0,1,1.257-3.744,4.616,4.616,0,0,1,3.533-1.336,4.958,4.958,0,0,1,2.5.615,4.106,4.106,0,0,1,1.661,1.767A5.925,5.925,0,0,1,212.179,14.069Z" transform="translate(538 2928)" fill="#fff"/>
    <path id="Trazado_71669" data-name="Trazado 71669" d="M60.893,15.432a3.322,3.322,0,0,1-1.252,2.742,5.441,5.441,0,0,1-3.485,1,8.184,8.184,0,0,1-3.639-.773V15.871a15,15,0,0,0,2.2.817,6.515,6.515,0,0,0,1.648.237,2.343,2.343,0,0,0,1.375-.343,1.172,1.172,0,0,0,.479-1.02,1.125,1.125,0,0,0-.211-.672,2.36,2.36,0,0,0-.62-.567,15.936,15.936,0,0,0-1.666-.87,7.894,7.894,0,0,1-1.767-1.063,3.992,3.992,0,0,1-.94-1.187,3.386,3.386,0,0,1-.352-1.582,3.321,3.321,0,0,1,1.156-2.681,4.8,4.8,0,0,1,3.195-.976,7.544,7.544,0,0,1,1.912.237,13.14,13.14,0,0,1,1.9.668l-.879,2.118a12.859,12.859,0,0,0-1.7-.589,5.474,5.474,0,0,0-1.323-.167,1.752,1.752,0,0,0-1.187.36,1.189,1.189,0,0,0-.413.94,1.164,1.164,0,0,0,.167.628,1.836,1.836,0,0,0,.532.519,16.441,16.441,0,0,0,1.727.9,6.872,6.872,0,0,1,2.47,1.727A3.371,3.371,0,0,1,60.893,15.432Zm2-8.8q0-1.31,1.459-1.31t1.459,1.31a1.277,1.277,0,0,1-.365.971,1.533,1.533,0,0,1-1.094.347Q62.9,7.952,62.9,6.634ZM65.692,19H63.011V9.174h2.681Zm9.668-2.918a2.705,2.705,0,0,1-1.05,2.3,5.19,5.19,0,0,1-3.142.791,9.869,9.869,0,0,1-1.828-.145,6.915,6.915,0,0,1-1.415-.426V16.39a9.345,9.345,0,0,0,1.683.589,6.815,6.815,0,0,0,1.648.237q1.459,0,1.459-.844a.7.7,0,0,0-.193-.514,2.8,2.8,0,0,0-.668-.448q-.475-.25-1.266-.584a7.951,7.951,0,0,1-1.666-.879,2.474,2.474,0,0,1-.773-.927,3.061,3.061,0,0,1-.242-1.288,2.334,2.334,0,0,1,1.015-2.026A4.945,4.945,0,0,1,71.8,8.989a8.17,8.17,0,0,1,3.454.773L74.446,11.7q-.738-.316-1.38-.519a4.333,4.333,0,0,0-1.31-.2q-1.187,0-1.187.642a.754.754,0,0,0,.382.624,10.4,10.4,0,0,0,1.674.782,7.778,7.778,0,0,1,1.688.87,2.573,2.573,0,0,1,.791.932A2.863,2.863,0,0,1,75.36,16.082Zm6.231.958a5.811,5.811,0,0,0,1.688-.308v2a6.017,6.017,0,0,1-2.461.448,3.012,3.012,0,0,1-2.342-.813,3.539,3.539,0,0,1-.734-2.439V11.187H76.458V10.053l1.477-.9.773-2.074h1.714V9.174h2.751v2.013H80.422v4.737a1.046,1.046,0,0,0,.321.844A1.266,1.266,0,0,0,81.591,17.04ZM89.334,10.9A1.7,1.7,0,0,0,88,11.437a2.5,2.5,0,0,0-.554,1.534h3.762a2.235,2.235,0,0,0-.519-1.534A1.756,1.756,0,0,0,89.334,10.9Zm.378,8.279A5.072,5.072,0,0,1,86,17.866a4.959,4.959,0,0,1-1.336-3.709A5.454,5.454,0,0,1,85.9,10.338a4.4,4.4,0,0,1,3.415-1.349,4.328,4.328,0,0,1,3.243,1.187,4.489,4.489,0,0,1,1.16,3.278v1.3H87.383a2.58,2.58,0,0,0,.677,1.784,2.381,2.381,0,0,0,1.775.642A7.37,7.37,0,0,0,91.514,17a8.4,8.4,0,0,0,1.652-.589v2.074a6.294,6.294,0,0,1-1.5.523A9.476,9.476,0,0,1,89.712,19.176ZM104.7,19h-2.681V13.261a2.891,2.891,0,0,0-.356-1.6,1.252,1.252,0,0,0-1.121-.532,1.623,1.623,0,0,0-1.494.756,4.958,4.958,0,0,0-.466,2.487V19H95.9V9.174h2.048l.36,1.257h.149A2.724,2.724,0,0,1,99.6,9.372a3.71,3.71,0,0,1,1.714-.382,3.087,3.087,0,0,1,2.988,1.441h.237A2.655,2.655,0,0,1,105.7,9.367a3.884,3.884,0,0,1,1.736-.378,3.426,3.426,0,0,1,2.527.857,3.763,3.763,0,0,1,.857,2.747V19h-2.689V13.261a2.891,2.891,0,0,0-.356-1.6,1.252,1.252,0,0,0-1.121-.532,1.672,1.672,0,0,0-1.472.7,3.99,3.99,0,0,0-.488,2.232Zm15.117,0-.519-1.336h-.07a3.959,3.959,0,0,1-1.393,1.182,4.5,4.5,0,0,1-1.868.33,3.02,3.02,0,0,1-2.228-.809,3.105,3.105,0,0,1-.813-2.3,2.593,2.593,0,0,1,1.094-2.307,6.341,6.341,0,0,1,3.3-.822l1.705-.053v-.431a1.336,1.336,0,0,0-1.529-1.494,6.969,6.969,0,0,0-2.769.712l-.888-1.811a7.988,7.988,0,0,1,3.762-.888,4.686,4.686,0,0,1,3.032.861,3.183,3.183,0,0,1,1.055,2.619V19Zm-.791-4.553-1.037.035a3.321,3.321,0,0,0-1.74.422,1.325,1.325,0,0,0-.571,1.178q0,1.134,1.3,1.134a2.06,2.06,0,0,0,1.49-.536,1.883,1.883,0,0,0,.558-1.424ZM133.192,10.9a1.7,1.7,0,0,0-1.336.541,2.5,2.5,0,0,0-.554,1.534h3.762a2.235,2.235,0,0,0-.519-1.534A1.756,1.756,0,0,0,133.192,10.9Zm.378,8.279a5.072,5.072,0,0,1-3.709-1.31,4.959,4.959,0,0,1-1.336-3.709,5.454,5.454,0,0,1,1.235-3.819,4.4,4.4,0,0,1,3.415-1.349,4.328,4.328,0,0,1,3.243,1.187,4.489,4.489,0,0,1,1.16,3.278v1.3h-6.337a2.58,2.58,0,0,0,.677,1.784,2.381,2.381,0,0,0,1.775.642A7.37,7.37,0,0,0,135.372,17a8.4,8.4,0,0,0,1.652-.589v2.074a6.294,6.294,0,0,1-1.5.523A9.476,9.476,0,0,1,133.57,19.176ZM146.718,19l-.36-1.257h-.141A2.828,2.828,0,0,1,145,18.8a4.171,4.171,0,0,1-1.8.374,3.431,3.431,0,0,1-2.61-.927,3.731,3.731,0,0,1-.879-2.667V9.174h2.681v5.739a2.757,2.757,0,0,0,.378,1.6,1.375,1.375,0,0,0,1.2.532,1.81,1.81,0,0,0,1.626-.751,4.661,4.661,0,0,0,.5-2.492V9.174h2.681V19ZM157.072,8.989a4.323,4.323,0,0,1,.905.079l-.2,2.514a3.071,3.071,0,0,0-.791-.088,2.843,2.843,0,0,0-2,.659A2.383,2.383,0,0,0,154.268,14v5h-2.681V9.174h2.03l.4,1.652h.132a3.694,3.694,0,0,1,1.235-1.332A3.045,3.045,0,0,1,157.072,8.989Zm4.465,5.08a4.124,4.124,0,0,0,.479,2.206,1.713,1.713,0,0,0,1.56.747,1.686,1.686,0,0,0,1.542-.743,4.183,4.183,0,0,0,.47-2.21,4.059,4.059,0,0,0-.475-2.188,2.018,2.018,0,0,0-3.1,0A4.055,4.055,0,0,0,161.537,14.069Zm6.794,0a5.28,5.28,0,0,1-1.266,3.753,4.589,4.589,0,0,1-3.524,1.354,4.93,4.93,0,0,1-2.5-.62,4.123,4.123,0,0,1-1.661-1.78,5.981,5.981,0,0,1-.58-2.707,5.251,5.251,0,0,1,1.257-3.744,4.616,4.616,0,0,1,3.533-1.336,4.958,4.958,0,0,1,2.5.615,4.106,4.106,0,0,1,1.661,1.767A5.925,5.925,0,0,1,168.331,14.069Zm7.611,5.106a3.259,3.259,0,0,1-2.716-1.257h-.141q.141,1.23.141,1.424v3.981h-2.681V9.174h2.18l.378,1.274h.123a3.1,3.1,0,0,1,2.786-1.459,3.189,3.189,0,0,1,2.725,1.345,6.219,6.219,0,0,1,.984,3.735,7.376,7.376,0,0,1-.461,2.733,3.834,3.834,0,0,1-1.314,1.767A3.367,3.367,0,0,1,175.942,19.176Zm-.791-8.042a1.693,1.693,0,0,0-1.45.611,3.507,3.507,0,0,0-.475,2.017v.29a4.14,4.14,0,0,0,.47,2.268,1.678,1.678,0,0,0,1.49.686q1.8,0,1.8-2.971a4.242,4.242,0,0,0-.444-2.175A1.515,1.515,0,0,0,175.151,11.134Zm10.854-.237a1.7,1.7,0,0,0-1.336.541,2.5,2.5,0,0,0-.554,1.534h3.762a2.235,2.235,0,0,0-.519-1.534A1.756,1.756,0,0,0,186.005,10.9Zm.378,8.279a5.072,5.072,0,0,1-3.709-1.31,4.959,4.959,0,0,1-1.336-3.709,5.454,5.454,0,0,1,1.235-3.819,4.4,4.4,0,0,1,3.415-1.349,4.328,4.328,0,0,1,3.243,1.187,4.489,4.489,0,0,1,1.16,3.278v1.3h-6.337a2.58,2.58,0,0,0,.677,1.784,2.381,2.381,0,0,0,1.775.642A7.37,7.37,0,0,0,188.185,17a8.4,8.4,0,0,0,1.652-.589v2.074a6.294,6.294,0,0,1-1.5.523A9.476,9.476,0,0,1,186.383,19.176Zm8.323-5.106a4.124,4.124,0,0,0,.479,2.206,1.713,1.713,0,0,0,1.56.747,1.686,1.686,0,0,0,1.542-.743,4.183,4.183,0,0,0,.47-2.21,4.059,4.059,0,0,0-.475-2.188,2.018,2.018,0,0,0-3.1,0A4.055,4.055,0,0,0,194.707,14.069Zm6.794,0a5.28,5.28,0,0,1-1.266,3.753,4.589,4.589,0,0,1-3.524,1.354,4.93,4.93,0,0,1-2.5-.62,4.123,4.123,0,0,1-1.661-1.78,5.981,5.981,0,0,1-.58-2.707,5.251,5.251,0,0,1,1.257-3.744,4.616,4.616,0,0,1,3.533-1.336,4.958,4.958,0,0,1,2.5.615,4.106,4.106,0,0,1,1.661,1.767A5.925,5.925,0,0,1,201.5,14.069Z" transform="translate(834 2928)" fill="#fff"/>
    <path id="Trazado_71673" data-name="Trazado 71673" d="M97.568,19V6.15h1.494v11.5h5.669V19Zm10.582,0h-1.459V9.367h1.459ZM106.568,6.757a.969.969,0,0,1,.246-.734.911.911,0,0,1,1.222,0,.951.951,0,0,1,.255.729.966.966,0,0,1-.255.734.893.893,0,0,1-1.222,0A.987.987,0,0,1,106.568,6.757ZM113.354,19,109.7,9.367h1.564l2.074,5.713a27.04,27.04,0,0,1,.826,2.6h.07a19.65,19.65,0,0,1,.611-1.929q.514-1.463,2.307-6.385h1.564L115.059,19Zm8.367,0h-1.459V9.367h1.459ZM120.139,6.757a.969.969,0,0,1,.246-.734.911.911,0,0,1,1.222,0,.951.951,0,0,1,.255.729.966.966,0,0,1-.255.734.893.893,0,0,1-1.222,0A.987.987,0,0,1,120.139,6.757ZM130.738,19l-.29-1.371h-.07a4.053,4.053,0,0,1-1.437,1.226,4.38,4.38,0,0,1-1.789.321,3.217,3.217,0,0,1-2.246-.738,2.693,2.693,0,0,1-.813-2.1q0-2.918,4.667-3.059l1.635-.053v-.6a2.442,2.442,0,0,0-.488-1.674,2.006,2.006,0,0,0-1.56-.541,6.357,6.357,0,0,0-2.725.738l-.448-1.116a6.856,6.856,0,0,1,1.56-.606,6.757,6.757,0,0,1,1.7-.22,3.669,3.669,0,0,1,2.553.765,3.192,3.192,0,0,1,.831,2.452V19Zm-3.3-1.028a2.961,2.961,0,0,0,2.14-.747,2.764,2.764,0,0,0,.778-2.092v-.87l-1.459.062a5.307,5.307,0,0,0-2.509.541,1.63,1.63,0,0,0-.769,1.49,1.5,1.5,0,0,0,.479,1.2A1.988,1.988,0,0,0,127.442,17.972ZM141.417,19V12.769a2.514,2.514,0,0,0-.536-1.758,2.184,2.184,0,0,0-1.679-.58,2.769,2.769,0,0,0-2.215.817,4.127,4.127,0,0,0-.7,2.7V19h-1.459V9.367h1.187l.237,1.318h.07a2.979,2.979,0,0,1,1.257-1.1,4.084,4.084,0,0,1,1.8-.391,3.659,3.659,0,0,1,2.619.839,3.572,3.572,0,0,1,.879,2.685V19Zm12.771-4.825A5.314,5.314,0,0,1,153,17.853a4.179,4.179,0,0,1-3.278,1.323,4.342,4.342,0,0,1-2.294-.606,4,4,0,0,1-1.547-1.74,6.065,6.065,0,0,1-.545-2.654,5.306,5.306,0,0,1,1.178-3.669,4.165,4.165,0,0,1,3.27-1.314A4.075,4.075,0,0,1,153,10.536,5.291,5.291,0,0,1,154.188,14.175Zm-7.339,0a4.572,4.572,0,0,0,.738,2.813,2.93,2.93,0,0,0,4.346,0,4.549,4.549,0,0,0,.743-2.817,4.476,4.476,0,0,0-.743-2.791,2.609,2.609,0,0,0-2.193-.954,2.568,2.568,0,0,0-2.162.94A4.526,4.526,0,0,0,146.849,14.175Z" transform="translate(1129 3007)" fill="#00223d"/>
    <path id="Trazado_71671" data-name="Trazado 71671" d="M131.179,11.635q0,7.541-5.836,7.541A5.942,5.942,0,0,1,123.726,19V17.743a5.168,5.168,0,0,0,1.6.229,3.891,3.891,0,0,0,3.186-1.305,6.6,6.6,0,0,0,1.173-4h-.105a3.128,3.128,0,0,1-1.283,1.112,4.126,4.126,0,0,1-1.8.382,3.623,3.623,0,0,1-2.707-1.02,3.889,3.889,0,0,1-1-2.848,4.362,4.362,0,0,1,1.121-3.164,4.288,4.288,0,0,1,5.238-.488,4.25,4.25,0,0,1,1.507,1.96A7.983,7.983,0,0,1,131.179,11.635Zm-4.324-4.421a2.406,2.406,0,0,0-1.942.809,3.374,3.374,0,0,0-.686,2.25,2.925,2.925,0,0,0,.633,1.991,2.42,2.42,0,0,0,1.925.725,3.336,3.336,0,0,0,1.472-.325,2.658,2.658,0,0,0,1.059-.888A2.048,2.048,0,0,0,129.7,10.6a4.025,4.025,0,0,0-.36-1.705,2.973,2.973,0,0,0-1.006-1.23A2.534,2.534,0,0,0,126.855,7.214Z" transform="translate(536 2983)" fill="#00223d"/>
    <path id="Trazado_71672" data-name="Trazado 71672" d="M117.736,13.507q0-3.788,1.472-5.665a5.2,5.2,0,0,1,4.355-1.876,5.8,5.8,0,0,1,1.564.167V7.39a5,5,0,0,0-1.547-.22,3.9,3.9,0,0,0-3.155,1.288,6.6,6.6,0,0,0-1.2,4.047h.105a3.365,3.365,0,0,1,3.059-1.512,3.592,3.592,0,0,1,2.729,1.046,3.943,3.943,0,0,1,1,2.839,4.377,4.377,0,0,1-1.094,3.151,3.9,3.9,0,0,1-2.958,1.147,3.8,3.8,0,0,1-3.164-1.5A6.629,6.629,0,0,1,117.736,13.507Zm4.315,4.43a2.441,2.441,0,0,0,1.938-.787,3.344,3.344,0,0,0,.69-2.272,2.93,2.93,0,0,0-.642-2,2.417,2.417,0,0,0-1.916-.729,3.233,3.233,0,0,0-1.45.325,2.684,2.684,0,0,0-1.05.9,2.072,2.072,0,0,0-.391,1.187,4.069,4.069,0,0,0,.352,1.688,2.974,2.974,0,0,0,1,1.239A2.486,2.486,0,0,0,122.052,17.937Zm9.844-6.785a4.725,4.725,0,0,1,3.195,1.006,3.451,3.451,0,0,1,1.165,2.755,3.979,3.979,0,0,1-1.27,3.129,5.073,5.073,0,0,1-3.5,1.134,6.446,6.446,0,0,1-3.313-.694V17.075a5.036,5.036,0,0,0,1.529.62,7.547,7.547,0,0,0,1.8.224,3.6,3.6,0,0,0,2.4-.729,2.617,2.617,0,0,0,.857-2.109q0-2.689-3.3-2.689a13.123,13.123,0,0,0-2.232.255l-.756-.483.483-6.012h6.39V7.5h-5.142l-.325,3.858A10.241,10.241,0,0,1,131.9,11.151Z" transform="translate(832 2983)" fill="#00223d"/>
    <path id="Trazado_71677" data-name="Trazado 71677" d="M122.992,19h-1.424V9.842q0-1.143.07-2.162-.185.185-.413.387T119.134,9.78l-.773-1,3.4-2.628h1.23Zm13.4-6.442a9.384,9.384,0,0,1-1.05,4.975,3.879,3.879,0,0,1-6.368-.04,9.2,9.2,0,0,1-1.081-4.935,9.381,9.381,0,0,1,1.046-4.983,3.882,3.882,0,0,1,6.368.07A9.158,9.158,0,0,1,136.4,12.558Zm-7.022,0a9.411,9.411,0,0,0,.659,4.083,2.368,2.368,0,0,0,4.214-.018,9.483,9.483,0,0,0,.655-4.065,9.42,9.42,0,0,0-.655-4.056,2.376,2.376,0,0,0-4.214-.018A9.348,9.348,0,0,0,129.373,12.558Z" transform="translate(536 3029)" fill="#00223d"/>
    <path id="Trazado_71676" data-name="Trazado 71676" d="M119.213,19l5.326-11.5h-7V6.15h8.552V7.319L120.83,19ZM136.4,12.558a9.384,9.384,0,0,1-1.05,4.975,3.879,3.879,0,0,1-6.368-.04,9.2,9.2,0,0,1-1.081-4.935,9.381,9.381,0,0,1,1.046-4.983,3.882,3.882,0,0,1,6.368.07A9.158,9.158,0,0,1,136.4,12.558Zm-7.022,0a9.411,9.411,0,0,0,.659,4.083,2.368,2.368,0,0,0,4.214-.018,9.483,9.483,0,0,0,.655-4.065,9.42,9.42,0,0,0-.655-4.056,2.376,2.376,0,0,0-4.214-.018A9.348,9.348,0,0,0,129.373,12.558Z" transform="translate(832 3029)" fill="#00223d"/>
    <path id="Trazado_71674" data-name="Trazado 71674" d="M83.066,15.581a3.152,3.152,0,0,1-1.23,2.646,5.335,5.335,0,0,1-3.34.949,8.365,8.365,0,0,1-3.516-.589V17.146a9.256,9.256,0,0,0,1.723.527,9.063,9.063,0,0,0,1.846.193A3.724,3.724,0,0,0,80.8,17.3a1.86,1.86,0,0,0,.756-1.578,2.025,2.025,0,0,0-.268-1.094,2.49,2.49,0,0,0-.9-.787,12.542,12.542,0,0,0-1.912-.817A6.1,6.1,0,0,1,75.917,11.5a3.357,3.357,0,0,1-.769-2.294,2.853,2.853,0,0,1,1.116-2.364,4.639,4.639,0,0,1,2.953-.879,8.7,8.7,0,0,1,3.524.7l-.466,1.3A7.965,7.965,0,0,0,79.182,7.3a2.994,2.994,0,0,0-1.854.51,1.68,1.68,0,0,0-.668,1.415,2.169,2.169,0,0,0,.246,1.094,2.317,2.317,0,0,0,.831.782,10.32,10.32,0,0,0,1.789.787,7.081,7.081,0,0,1,2.782,1.547A3.042,3.042,0,0,1,83.066,15.581Zm6.478,3.595a4.426,4.426,0,0,1-3.371-1.3,5.036,5.036,0,0,1-1.235-3.612,5.585,5.585,0,0,1,1.147-3.7,3.81,3.81,0,0,1,3.081-1.371,3.633,3.633,0,0,1,2.865,1.191,4.564,4.564,0,0,1,1.055,3.142v.923H86.45a3.818,3.818,0,0,0,.857,2.575,2.964,2.964,0,0,0,2.29.879,7.759,7.759,0,0,0,3.076-.65v1.3a7.721,7.721,0,0,1-1.463.479A8.224,8.224,0,0,1,89.544,19.176Zm-.4-8.763a2.383,2.383,0,0,0-1.85.756,3.484,3.484,0,0,0-.813,2.092h5.036a3.208,3.208,0,0,0-.615-2.114A2.165,2.165,0,0,0,89.148,10.413ZM107.852,19V12.733a2.6,2.6,0,0,0-.492-1.727,1.9,1.9,0,0,0-1.529-.576,2.469,2.469,0,0,0-2.013.782,3.718,3.718,0,0,0-.65,2.408V19h-1.459V12.733a2.6,2.6,0,0,0-.492-1.727,1.915,1.915,0,0,0-1.538-.576,2.382,2.382,0,0,0-2.008.822,4.447,4.447,0,0,0-.637,2.694V19H95.573V9.367H96.76L97,10.686h.07a2.867,2.867,0,0,1,1.165-1.1,3.558,3.558,0,0,1,1.683-.4,2.862,2.862,0,0,1,2.953,1.635h.07a3.072,3.072,0,0,1,1.248-1.2,3.873,3.873,0,0,1,1.863-.439,3.262,3.262,0,0,1,2.448.839,3.755,3.755,0,0,1,.813,2.685V19Zm5.924,0h-1.459V9.367h1.459ZM112.193,6.757a.969.969,0,0,1,.246-.734.911.911,0,0,1,1.222,0,.951.951,0,0,1,.255.729.966.966,0,0,1-.255.734.893.893,0,0,1-1.222,0A.987.987,0,0,1,112.193,6.757Zm9.158,12.419a4.169,4.169,0,0,1-1.718-.347,3.231,3.231,0,0,1-1.305-1.068h-.105a12.921,12.921,0,0,1,.105,1.6v3.964h-1.459V9.367h1.187l.2,1.318h.07a3.388,3.388,0,0,1,1.31-1.143,3.981,3.981,0,0,1,1.714-.352,3.56,3.56,0,0,1,2.958,1.31,5.766,5.766,0,0,1,1.042,3.674,5.732,5.732,0,0,1-1.059,3.687A3.566,3.566,0,0,1,121.352,19.176Zm-.211-8.745a2.585,2.585,0,0,0-2.136.817,4.206,4.206,0,0,0-.677,2.6v.325a4.821,4.821,0,0,0,.677,2.9,2.574,2.574,0,0,0,2.171.875,2.257,2.257,0,0,0,1.956-1.011,4.793,4.793,0,0,0,.708-2.786,4.613,4.613,0,0,0-.708-2.764A2.327,2.327,0,0,0,121.141,10.431Zm10.828,8.745a4.426,4.426,0,0,1-3.371-1.3,5.036,5.036,0,0,1-1.235-3.612,5.585,5.585,0,0,1,1.147-3.7,3.81,3.81,0,0,1,3.081-1.371,3.633,3.633,0,0,1,2.865,1.191,4.564,4.564,0,0,1,1.055,3.142v.923h-6.636a3.818,3.818,0,0,0,.857,2.575,2.964,2.964,0,0,0,2.29.879,7.759,7.759,0,0,0,3.076-.65v1.3a7.721,7.721,0,0,1-1.463.479A8.224,8.224,0,0,1,131.969,19.176Zm-.4-8.763a2.383,2.383,0,0,0-1.85.756,3.484,3.484,0,0,0-.813,2.092h5.036a3.208,3.208,0,0,0-.615-2.114A2.165,2.165,0,0,0,131.573,10.413Zm12.639,5.959a2.413,2.413,0,0,1-1,2.074,4.71,4.71,0,0,1-2.812.729,6.116,6.116,0,0,1-2.988-.606V17.216a7.227,7.227,0,0,0,1.49.554,6.221,6.221,0,0,0,1.534.2,3.478,3.478,0,0,0,1.758-.365,1.256,1.256,0,0,0,.127-2.074,7.673,7.673,0,0,0-1.9-.945,10.318,10.318,0,0,1-1.912-.875,2.611,2.611,0,0,1-.844-.848,2.212,2.212,0,0,1-.277-1.134,2.161,2.161,0,0,1,.958-1.859,4.464,4.464,0,0,1,2.628-.681,7.689,7.689,0,0,1,3.041.633l-.519,1.187a6.98,6.98,0,0,0-2.628-.6,3.023,3.023,0,0,0-1.564.325,1.006,1.006,0,0,0-.527.9,1.092,1.092,0,0,0,.2.659,1.952,1.952,0,0,0,.637.519,14.24,14.24,0,0,0,1.688.712,6.3,6.3,0,0,1,2.316,1.257A2.216,2.216,0,0,1,144.212,16.372Zm8.3,2.628-.29-1.371h-.07a4.053,4.053,0,0,1-1.437,1.226,4.38,4.38,0,0,1-1.789.321,3.217,3.217,0,0,1-2.246-.738,2.693,2.693,0,0,1-.813-2.1q0-2.918,4.667-3.059l1.635-.053v-.6a2.442,2.442,0,0,0-.488-1.674,2.006,2.006,0,0,0-1.56-.541,6.357,6.357,0,0,0-2.725.738l-.448-1.116a6.856,6.856,0,0,1,1.56-.606,6.757,6.757,0,0,1,1.7-.22,3.669,3.669,0,0,1,2.553.765,3.192,3.192,0,0,1,.831,2.452V19Zm-3.3-1.028a2.961,2.961,0,0,0,2.14-.747,2.764,2.764,0,0,0,.778-2.092v-.87l-1.459.062a5.307,5.307,0,0,0-2.509.541,1.63,1.63,0,0,0-.769,1.49,1.5,1.5,0,0,0,.479,1.2A1.988,1.988,0,0,0,149.213,17.972Zm13.939-.264h-.079a3.428,3.428,0,0,1-3.023,1.468,3.577,3.577,0,0,1-2.94-1.292,5.687,5.687,0,0,1-1.05-3.674,5.783,5.783,0,0,1,1.055-3.7,3.549,3.549,0,0,1,2.936-1.318,3.5,3.5,0,0,1,3.006,1.424h.114l-.062-.694-.035-.677V5.324h1.459V19h-1.187Zm-2.918.246a2.656,2.656,0,0,0,2.167-.813,4.108,4.108,0,0,0,.672-2.624V14.21a4.834,4.834,0,0,0-.681-2.922,2.587,2.587,0,0,0-2.175-.875,2.233,2.233,0,0,0-1.964,1,4.96,4.96,0,0,0-.681,2.817,4.755,4.755,0,0,0,.677,2.786A2.292,2.292,0,0,0,160.234,17.954Zm15.706-3.779a5.314,5.314,0,0,1-1.187,3.678,4.179,4.179,0,0,1-3.278,1.323,4.342,4.342,0,0,1-2.294-.606,4,4,0,0,1-1.547-1.74,6.065,6.065,0,0,1-.545-2.654,5.306,5.306,0,0,1,1.178-3.669,4.165,4.165,0,0,1,3.27-1.314,4.075,4.075,0,0,1,3.212,1.345A5.291,5.291,0,0,1,175.94,14.175Zm-7.339,0a4.572,4.572,0,0,0,.738,2.813,2.93,2.93,0,0,0,4.346,0,4.549,4.549,0,0,0,.743-2.817,4.476,4.476,0,0,0-.743-2.791,2.609,2.609,0,0,0-2.193-.954,2.568,2.568,0,0,0-2.162.94A4.526,4.526,0,0,0,168.6,14.175Z" transform="translate(1129 3099)" fill="#00223d"/>
    <path id="Trazado_71678" data-name="Trazado 71678" d="M122.992,19h-1.424V9.842q0-1.143.07-2.162-.185.185-.413.387T119.134,9.78l-.773-1,3.4-2.628h1.23Zm13.333,0h-8.446V17.743l3.384-3.4a24.918,24.918,0,0,0,2.039-2.232,5.7,5.7,0,0,0,.738-1.3,3.726,3.726,0,0,0,.246-1.362,2.16,2.16,0,0,0-.624-1.63,2.39,2.39,0,0,0-1.731-.6,4.354,4.354,0,0,0-1.516.264,6.043,6.043,0,0,0-1.6.958l-.773-.993a5.924,5.924,0,0,1,3.867-1.477,4.086,4.086,0,0,1,2.839.927,3.189,3.189,0,0,1,1.028,2.492,4.812,4.812,0,0,1-.686,2.417,15.345,15.345,0,0,1-2.566,3.023l-2.812,2.751v.07h6.609Z" transform="translate(536 3078)" fill="#00223d"/>
    <path id="Trazado_71679" data-name="Trazado 71679" d="M121.841,5.966a4.357,4.357,0,0,1,2.786.817,2.726,2.726,0,0,1,1.028,2.259,2.812,2.812,0,0,1-.589,1.731,5.2,5.2,0,0,1-1.881,1.424,6.323,6.323,0,0,1,2.224,1.569,2.953,2.953,0,0,1,.659,1.9,3.188,3.188,0,0,1-1.116,2.553,4.557,4.557,0,0,1-3.059.954,4.9,4.9,0,0,1-3.164-.9,3.1,3.1,0,0,1-1.107-2.553q0-2.206,2.689-3.437a4.964,4.964,0,0,1-1.74-1.481,3.15,3.15,0,0,1-.527-1.78A2.712,2.712,0,0,1,119.077,6.8,4.283,4.283,0,0,1,121.841,5.966Zm-2.777,9.791A1.989,1.989,0,0,0,119.8,17.4a3.215,3.215,0,0,0,2.061.589,3.07,3.07,0,0,0,2.039-.615,2.09,2.09,0,0,0,.729-1.687,2.056,2.056,0,0,0-.686-1.516,7,7,0,0,0-2.391-1.288,5.2,5.2,0,0,0-1.9,1.244A2.41,2.41,0,0,0,119.063,15.757Zm2.76-8.6a2.587,2.587,0,0,0-1.723.527,1.748,1.748,0,0,0-.624,1.406A2.013,2.013,0,0,0,120,10.475a5.415,5.415,0,0,0,1.916,1.16,4.8,4.8,0,0,0,1.78-1.134,2.1,2.1,0,0,0,.523-1.415,1.73,1.73,0,0,0-.637-1.411A2.686,2.686,0,0,0,121.823,7.152ZM136.4,12.558a9.384,9.384,0,0,1-1.05,4.975,3.879,3.879,0,0,1-6.368-.04,9.2,9.2,0,0,1-1.081-4.935,9.381,9.381,0,0,1,1.046-4.983,3.882,3.882,0,0,1,6.368.07A9.158,9.158,0,0,1,136.4,12.558Zm-7.022,0a9.411,9.411,0,0,0,.659,4.083,2.368,2.368,0,0,0,4.214-.018,9.483,9.483,0,0,0,.655-4.065,9.42,9.42,0,0,0-.655-4.056,2.376,2.376,0,0,0-4.214-.018A9.348,9.348,0,0,0,129.373,12.558Z" transform="translate(832 3078)" fill="#00223d"/>
    <path id="Trazado_71680" data-name="Trazado 71680" d="M122.992,19h-1.424V9.842q0-1.143.07-2.162-.185.185-.413.387T119.134,9.78l-.773-1,3.4-2.628h1.23Zm13.939-2.953h-1.907V19h-1.4V16.047h-6.249V14.772l6.1-8.692h1.547v8.64h1.907Zm-3.3-1.327V10.448q0-1.257.088-2.839h-.07a13.207,13.207,0,0,1-.791,1.4l-4.017,5.713Z" transform="translate(536 3119)" fill="#00223d"/>
    <path id="Trazado_71681" data-name="Trazado 71681" d="M126.033,11.635q0,7.541-5.836,7.541A5.942,5.942,0,0,1,118.58,19V17.743a5.168,5.168,0,0,0,1.6.229,3.891,3.891,0,0,0,3.186-1.305,6.6,6.6,0,0,0,1.173-4h-.105a3.128,3.128,0,0,1-1.283,1.112,4.126,4.126,0,0,1-1.8.382,3.623,3.623,0,0,1-2.707-1.02,3.889,3.889,0,0,1-1-2.848,4.362,4.362,0,0,1,1.121-3.164A4.288,4.288,0,0,1,124,6.638a4.25,4.25,0,0,1,1.507,1.96A7.983,7.983,0,0,1,126.033,11.635Zm-4.324-4.421a2.406,2.406,0,0,0-1.942.809,3.374,3.374,0,0,0-.686,2.25,2.925,2.925,0,0,0,.633,1.991,2.42,2.42,0,0,0,1.925.725,3.336,3.336,0,0,0,1.472-.325,2.658,2.658,0,0,0,1.059-.888,2.048,2.048,0,0,0,.387-1.178,4.025,4.025,0,0,0-.36-1.705,2.973,2.973,0,0,0-1.006-1.23A2.534,2.534,0,0,0,121.709,7.214ZM136.4,12.558a9.384,9.384,0,0,1-1.05,4.975,3.879,3.879,0,0,1-6.368-.04,9.2,9.2,0,0,1-1.081-4.935,9.381,9.381,0,0,1,1.046-4.983,3.882,3.882,0,0,1,6.368.07A9.158,9.158,0,0,1,136.4,12.558Zm-7.022,0a9.411,9.411,0,0,0,.659,4.083,2.368,2.368,0,0,0,4.214-.018,9.483,9.483,0,0,0,.655-4.065,9.42,9.42,0,0,0-.655-4.056,2.376,2.376,0,0,0-4.214-.018A9.348,9.348,0,0,0,129.373,12.558Z" transform="translate(832 3119)" fill="#00223d"/>
    <path id="Trazado_71675" data-name="Trazado 71675" d="M104.7,9.895a3.6,3.6,0,0,1-1.332,3,6.032,6.032,0,0,1-3.81,1.05H98.043V19H96.549V6.15H99.88Q104.7,6.15,104.7,9.895Zm-6.653,2.769h1.345a5,5,0,0,0,2.874-.642,2.365,2.365,0,0,0,.888-2.057,2.217,2.217,0,0,0-.835-1.9,4.362,4.362,0,0,0-2.6-.624h-1.67Zm13.192,6.513a4.426,4.426,0,0,1-3.371-1.3,5.036,5.036,0,0,1-1.235-3.612,5.585,5.585,0,0,1,1.147-3.7,3.81,3.81,0,0,1,3.081-1.371,3.633,3.633,0,0,1,2.865,1.191,4.564,4.564,0,0,1,1.055,3.142v.923h-6.636A3.818,3.818,0,0,0,109,17.022a2.964,2.964,0,0,0,2.29.879,7.759,7.759,0,0,0,3.076-.65v1.3a7.721,7.721,0,0,1-1.463.479A8.224,8.224,0,0,1,111.235,19.176Zm-.4-8.763a2.383,2.383,0,0,0-1.85.756,3.484,3.484,0,0,0-.813,2.092h5.036a3.208,3.208,0,0,0-.615-2.114A2.165,2.165,0,0,0,110.84,10.413Zm12.639,5.959a2.413,2.413,0,0,1-1,2.074,4.71,4.71,0,0,1-2.812.729,6.116,6.116,0,0,1-2.988-.606V17.216a7.227,7.227,0,0,0,1.49.554,6.221,6.221,0,0,0,1.534.2,3.478,3.478,0,0,0,1.758-.365,1.256,1.256,0,0,0,.127-2.074,7.673,7.673,0,0,0-1.9-.945,10.318,10.318,0,0,1-1.912-.875,2.611,2.611,0,0,1-.844-.848,2.212,2.212,0,0,1-.277-1.134,2.161,2.161,0,0,1,.958-1.859,4.464,4.464,0,0,1,2.628-.681,7.689,7.689,0,0,1,3.041.633l-.519,1.187a6.98,6.98,0,0,0-2.628-.6,3.023,3.023,0,0,0-1.564.325,1.006,1.006,0,0,0-.527.9,1.092,1.092,0,0,0,.2.659,1.952,1.952,0,0,0,.637.519,14.24,14.24,0,0,0,1.688.712,6.3,6.3,0,0,1,2.316,1.257A2.216,2.216,0,0,1,123.479,16.372Zm8.3,2.628-.29-1.371h-.07a4.053,4.053,0,0,1-1.437,1.226,4.38,4.38,0,0,1-1.789.321,3.217,3.217,0,0,1-2.246-.738,2.693,2.693,0,0,1-.813-2.1q0-2.918,4.667-3.059l1.635-.053v-.6a2.442,2.442,0,0,0-.488-1.674,2.006,2.006,0,0,0-1.56-.541,6.357,6.357,0,0,0-2.725.738l-.448-1.116a6.856,6.856,0,0,1,1.56-.606,6.757,6.757,0,0,1,1.7-.22,3.669,3.669,0,0,1,2.553.765,3.192,3.192,0,0,1,.831,2.452V19Zm-3.3-1.028a2.961,2.961,0,0,0,2.14-.747,2.764,2.764,0,0,0,.778-2.092v-.87l-1.459.062a5.307,5.307,0,0,0-2.509.541,1.63,1.63,0,0,0-.769,1.49,1.5,1.5,0,0,0,.479,1.2A1.988,1.988,0,0,0,128.479,17.972Zm13.939-.264h-.079a3.428,3.428,0,0,1-3.023,1.468,3.577,3.577,0,0,1-2.94-1.292,5.687,5.687,0,0,1-1.05-3.674,5.783,5.783,0,0,1,1.055-3.7,3.549,3.549,0,0,1,2.936-1.318,3.5,3.5,0,0,1,3.006,1.424h.114l-.062-.694-.035-.677V5.324H143.8V19h-1.187Zm-2.918.246a2.656,2.656,0,0,0,2.167-.813,4.108,4.108,0,0,0,.672-2.624V14.21a4.834,4.834,0,0,0-.681-2.922,2.587,2.587,0,0,0-2.175-.875,2.233,2.233,0,0,0-1.964,1,4.96,4.96,0,0,0-.681,2.817,4.755,4.755,0,0,0,.677,2.786A2.292,2.292,0,0,0,139.5,17.954Zm15.706-3.779a5.314,5.314,0,0,1-1.187,3.678,4.179,4.179,0,0,1-3.278,1.323,4.342,4.342,0,0,1-2.294-.606,4,4,0,0,1-1.547-1.74,6.065,6.065,0,0,1-.545-2.654,5.306,5.306,0,0,1,1.178-3.669,4.165,4.165,0,0,1,3.27-1.314,4.075,4.075,0,0,1,3.212,1.345A5.291,5.291,0,0,1,155.207,14.175Zm-7.339,0a4.572,4.572,0,0,0,.738,2.813,2.93,2.93,0,0,0,4.346,0,4.549,4.549,0,0,0,.743-2.817,4.476,4.476,0,0,0-.743-2.791,2.609,2.609,0,0,0-2.193-.954,2.568,2.568,0,0,0-2.162.94A4.526,4.526,0,0,0,147.868,14.175Z" transform="translate(1129 3252)" fill="#00223d"/>
    <path id="Trazado_71694" data-name="Trazado 71694" d="M122.992,19h-1.424V9.842q0-1.143.07-2.162-.185.185-.413.387T119.134,9.78l-.773-1,3.4-2.628h1.23Zm5.036-5.493q0-3.788,1.472-5.665a5.2,5.2,0,0,1,4.355-1.876,5.8,5.8,0,0,1,1.564.167V7.39a5,5,0,0,0-1.547-.22,3.9,3.9,0,0,0-3.155,1.288,6.6,6.6,0,0,0-1.2,4.047h.105a3.365,3.365,0,0,1,3.059-1.512,3.592,3.592,0,0,1,2.729,1.046,3.943,3.943,0,0,1,1,2.839,4.377,4.377,0,0,1-1.094,3.151,3.9,3.9,0,0,1-2.958,1.147,3.8,3.8,0,0,1-3.164-1.5A6.629,6.629,0,0,1,128.028,13.507Zm4.315,4.43a2.441,2.441,0,0,0,1.938-.787,3.344,3.344,0,0,0,.69-2.272,2.93,2.93,0,0,0-.642-2,2.417,2.417,0,0,0-1.916-.729,3.233,3.233,0,0,0-1.45.325,2.684,2.684,0,0,0-1.05.9,2.072,2.072,0,0,0-.391,1.187,4.069,4.069,0,0,0,.352,1.688,2.974,2.974,0,0,0,1,1.239A2.486,2.486,0,0,0,132.344,17.937Z" transform="translate(536 3165)" fill="#00223d"/>
    <path id="Trazado_71695" data-name="Trazado 71695" d="M117.846,19h-1.424V9.842q0-1.143.07-2.162-.185.185-.413.387T113.988,9.78l-.773-1,3.4-2.628h1.23Zm13.4-6.442a9.384,9.384,0,0,1-1.05,4.975,3.879,3.879,0,0,1-6.368-.04,9.2,9.2,0,0,1-1.081-4.935A9.381,9.381,0,0,1,123.8,7.574a3.882,3.882,0,0,1,6.368.07A9.158,9.158,0,0,1,131.25,12.558Zm-7.022,0a9.411,9.411,0,0,0,.659,4.083,2.368,2.368,0,0,0,4.214-.018,9.483,9.483,0,0,0,.655-4.065A9.42,9.42,0,0,0,129.1,8.5a2.376,2.376,0,0,0-4.214-.018A9.348,9.348,0,0,0,124.227,12.558Zm17.314,0a9.384,9.384,0,0,1-1.05,4.975,3.879,3.879,0,0,1-6.368-.04,9.2,9.2,0,0,1-1.081-4.935,9.381,9.381,0,0,1,1.046-4.983,3.882,3.882,0,0,1,6.368.07A9.158,9.158,0,0,1,141.542,12.558Zm-7.022,0a9.411,9.411,0,0,0,.659,4.083,2.368,2.368,0,0,0,4.214-.018,9.483,9.483,0,0,0,.655-4.065,9.42,9.42,0,0,0-.655-4.056,2.376,2.376,0,0,0-4.214-.018A9.348,9.348,0,0,0,134.519,12.558Z" transform="translate(832 3165)" fill="#00223d"/>
    <path id="Trazado_71698" data-name="Trazado 71698" d="M122.992,19h-1.424V9.842q0-1.143.07-2.162-.185.185-.413.387T119.134,9.78l-.773-1,3.4-2.628h1.23Zm9.141-13.034a4.357,4.357,0,0,1,2.786.817,2.726,2.726,0,0,1,1.028,2.259,2.812,2.812,0,0,1-.589,1.731,5.2,5.2,0,0,1-1.881,1.424,6.323,6.323,0,0,1,2.224,1.569,2.953,2.953,0,0,1,.659,1.9,3.188,3.188,0,0,1-1.116,2.553,4.557,4.557,0,0,1-3.059.954,4.9,4.9,0,0,1-3.164-.9,3.1,3.1,0,0,1-1.107-2.553q0-2.206,2.689-3.437a4.964,4.964,0,0,1-1.74-1.481,3.15,3.15,0,0,1-.527-1.78A2.712,2.712,0,0,1,129.369,6.8,4.283,4.283,0,0,1,132.133,5.966Zm-2.777,9.791a1.989,1.989,0,0,0,.734,1.644,3.215,3.215,0,0,0,2.061.589,3.07,3.07,0,0,0,2.039-.615,2.09,2.09,0,0,0,.729-1.687,2.056,2.056,0,0,0-.686-1.516,7,7,0,0,0-2.391-1.288,5.2,5.2,0,0,0-1.9,1.244A2.41,2.41,0,0,0,129.355,15.757Zm2.76-8.6a2.587,2.587,0,0,0-1.723.527,1.748,1.748,0,0,0-.624,1.406,2.013,2.013,0,0,0,.519,1.389,5.415,5.415,0,0,0,1.916,1.16,4.8,4.8,0,0,0,1.78-1.134,2.1,2.1,0,0,0,.523-1.415,1.73,1.73,0,0,0-.637-1.411A2.686,2.686,0,0,0,132.115,7.152Z" transform="translate(536 3213)" fill="#00223d"/>
    <path id="Trazado_71699" data-name="Trazado 71699" d="M117.846,19h-1.424V9.842q0-1.143.07-2.162-.185.185-.413.387T113.988,9.78l-.773-1,3.4-2.628h1.23Zm10.292,0h-1.424V9.842q0-1.143.07-2.162-.185.185-.413.387T124.28,9.78l-.773-1,3.4-2.628h1.23Zm13.4-6.442a9.384,9.384,0,0,1-1.05,4.975,3.879,3.879,0,0,1-6.368-.04,9.2,9.2,0,0,1-1.081-4.935,9.381,9.381,0,0,1,1.046-4.983,3.882,3.882,0,0,1,6.368.07A9.158,9.158,0,0,1,141.542,12.558Zm-7.022,0a9.411,9.411,0,0,0,.659,4.083,2.368,2.368,0,0,0,4.214-.018,9.483,9.483,0,0,0,.655-4.065,9.42,9.42,0,0,0-.655-4.056,2.376,2.376,0,0,0-4.214-.018A9.348,9.348,0,0,0,134.519,12.558Z" transform="translate(832 3213)" fill="#00223d"/>
    <path id="Trazado_71706" data-name="Trazado 71706" d="M126.033,19h-8.446V17.743l3.384-3.4a24.918,24.918,0,0,0,2.039-2.232,5.7,5.7,0,0,0,.738-1.3,3.726,3.726,0,0,0,.246-1.362,2.16,2.16,0,0,0-.624-1.63,2.39,2.39,0,0,0-1.731-.6,4.354,4.354,0,0,0-1.516.264,6.043,6.043,0,0,0-1.6.958l-.773-.993a5.924,5.924,0,0,1,3.867-1.477,4.086,4.086,0,0,1,2.839.927,3.189,3.189,0,0,1,1.028,2.492A4.812,4.812,0,0,1,124.8,11.8a15.345,15.345,0,0,1-2.566,3.023l-2.812,2.751v.07h6.609ZM136.4,12.558a9.384,9.384,0,0,1-1.05,4.975,3.879,3.879,0,0,1-6.368-.04,9.2,9.2,0,0,1-1.081-4.935,9.381,9.381,0,0,1,1.046-4.983,3.882,3.882,0,0,1,6.368.07A9.158,9.158,0,0,1,136.4,12.558Zm-7.022,0a9.411,9.411,0,0,0,.659,4.083,2.368,2.368,0,0,0,4.214-.018,9.483,9.483,0,0,0,.655-4.065,9.42,9.42,0,0,0-.655-4.056,2.376,2.376,0,0,0-4.214-.018A9.348,9.348,0,0,0,129.373,12.558Z" transform="translate(536 3259)" fill="#00223d"/>
    <path id="Trazado_71707" data-name="Trazado 71707" d="M117.846,19h-1.424V9.842q0-1.143.07-2.162-.185.185-.413.387T113.988,9.78l-.773-1,3.4-2.628h1.23Zm13.333,0h-8.446V17.743l3.384-3.4a24.918,24.918,0,0,0,2.039-2.232,5.7,5.7,0,0,0,.738-1.3,3.726,3.726,0,0,0,.246-1.362,2.16,2.16,0,0,0-.624-1.63,2.39,2.39,0,0,0-1.731-.6,4.354,4.354,0,0,0-1.516.264,6.043,6.043,0,0,0-1.6.958l-.773-.993a5.924,5.924,0,0,1,3.867-1.477,4.086,4.086,0,0,1,2.839.927,3.189,3.189,0,0,1,1.028,2.492,4.812,4.812,0,0,1-.686,2.417,15.345,15.345,0,0,1-2.566,3.023l-2.812,2.751v.07h6.609Zm10.362-6.442a9.384,9.384,0,0,1-1.05,4.975,3.879,3.879,0,0,1-6.368-.04,9.2,9.2,0,0,1-1.081-4.935,9.381,9.381,0,0,1,1.046-4.983,3.882,3.882,0,0,1,6.368.07A9.158,9.158,0,0,1,141.542,12.558Zm-7.022,0a9.411,9.411,0,0,0,.659,4.083,2.368,2.368,0,0,0,4.214-.018,9.483,9.483,0,0,0,.655-4.065,9.42,9.42,0,0,0-.655-4.056,2.376,2.376,0,0,0-4.214-.018A9.348,9.348,0,0,0,134.519,12.558Z" transform="translate(832 3259)" fill="#00223d"/>
    <path id="Trazado_71710" data-name="Trazado 71710" d="M126.033,19h-8.446V17.743l3.384-3.4a24.918,24.918,0,0,0,2.039-2.232,5.7,5.7,0,0,0,.738-1.3,3.726,3.726,0,0,0,.246-1.362,2.16,2.16,0,0,0-.624-1.63,2.39,2.39,0,0,0-1.731-.6,4.354,4.354,0,0,0-1.516.264,6.043,6.043,0,0,0-1.6.958l-.773-.993a5.924,5.924,0,0,1,3.867-1.477,4.086,4.086,0,0,1,2.839.927,3.189,3.189,0,0,1,1.028,2.492A4.812,4.812,0,0,1,124.8,11.8a15.345,15.345,0,0,1-2.566,3.023l-2.812,2.751v.07h6.609Zm7.251,0H131.86V9.842q0-1.143.07-2.162-.185.185-.413.387T129.426,9.78l-.773-1,3.4-2.628h1.23Z" transform="translate(536 3302)" fill="#00223d"/>
    <path id="Trazado_71714" data-name="Trazado 71714" d="M126.033,19h-8.446V17.743l3.384-3.4a24.918,24.918,0,0,0,2.039-2.232,5.7,5.7,0,0,0,.738-1.3,3.726,3.726,0,0,0,.246-1.362,2.16,2.16,0,0,0-.624-1.63,2.39,2.39,0,0,0-1.731-.6,4.354,4.354,0,0,0-1.516.264,6.043,6.043,0,0,0-1.6.958l-.773-.993a5.924,5.924,0,0,1,3.867-1.477,4.086,4.086,0,0,1,2.839.927,3.189,3.189,0,0,1,1.028,2.492A4.812,4.812,0,0,1,124.8,11.8a15.345,15.345,0,0,1-2.566,3.023l-2.812,2.751v.07h6.609Zm10.292,0h-8.446V17.743l3.384-3.4a24.918,24.918,0,0,0,2.039-2.232,5.7,5.7,0,0,0,.738-1.3,3.726,3.726,0,0,0,.246-1.362,2.16,2.16,0,0,0-.624-1.63,2.39,2.39,0,0,0-1.731-.6,4.354,4.354,0,0,0-1.516.264,6.043,6.043,0,0,0-1.6.958l-.773-.993a5.924,5.924,0,0,1,3.867-1.477,4.086,4.086,0,0,1,2.839.927,3.189,3.189,0,0,1,1.028,2.492,4.812,4.812,0,0,1-.686,2.417,15.345,15.345,0,0,1-2.566,3.023l-2.812,2.751v.07h6.609Z" transform="translate(536 3346)" fill="#00223d"/>
    <path id="Trazado_71711" data-name="Trazado 71711" d="M117.846,19h-1.424V9.842q0-1.143.07-2.162-.185.185-.413.387T113.988,9.78l-.773-1,3.4-2.628h1.23ZM130.7,9.174a2.93,2.93,0,0,1-.69,2.013,3.454,3.454,0,0,1-1.956,1.046v.07a3.678,3.678,0,0,1,2.294.984,2.9,2.9,0,0,1,.747,2.074,3.365,3.365,0,0,1-1.274,2.826,5.8,5.8,0,0,1-3.621.989,10.5,10.5,0,0,1-1.868-.154,6.392,6.392,0,0,1-1.648-.541V17.093a8.416,8.416,0,0,0,3.568.844q3.331,0,3.331-2.61,0-2.338-3.674-2.338H124.64V11.731h1.283a3.864,3.864,0,0,0,2.382-.664,2.177,2.177,0,0,0,.879-1.841,1.815,1.815,0,0,0-.646-1.477,2.662,2.662,0,0,0-1.753-.536,5.41,5.41,0,0,0-1.591.229,7.119,7.119,0,0,0-1.705.844L122.75,7.3a6.155,6.155,0,0,1,1.824-.98,6.628,6.628,0,0,1,2.175-.356,4.445,4.445,0,0,1,2.909.857A2.886,2.886,0,0,1,130.7,9.174Zm10.846,3.384a9.384,9.384,0,0,1-1.05,4.975,3.879,3.879,0,0,1-6.368-.04,9.2,9.2,0,0,1-1.081-4.935,9.381,9.381,0,0,1,1.046-4.983,3.882,3.882,0,0,1,6.368.07A9.158,9.158,0,0,1,141.542,12.558Zm-7.022,0a9.411,9.411,0,0,0,.659,4.083,2.368,2.368,0,0,0,4.214-.018,9.483,9.483,0,0,0,.655-4.065,9.42,9.42,0,0,0-.655-4.056,2.376,2.376,0,0,0-4.214-.018A9.348,9.348,0,0,0,134.519,12.558Z" transform="translate(832 3302)" fill="#00223d"/>
    <path id="Trazado_71715" data-name="Trazado 71715" d="M117.846,19h-1.424V9.842q0-1.143.07-2.162-.185.185-.413.387T113.988,9.78l-.773-1,3.4-2.628h1.23Zm13.939-2.953h-1.907V19h-1.4V16.047h-6.249V14.772l6.1-8.692h1.547v8.64h1.907Zm-3.3-1.327V10.448q0-1.257.088-2.839h-.07a13.207,13.207,0,0,1-.791,1.4l-4.017,5.713Zm13.061-2.162a9.384,9.384,0,0,1-1.05,4.975,3.879,3.879,0,0,1-6.368-.04,9.2,9.2,0,0,1-1.081-4.935,9.381,9.381,0,0,1,1.046-4.983,3.882,3.882,0,0,1,6.368.07A9.158,9.158,0,0,1,141.542,12.558Zm-7.022,0a9.411,9.411,0,0,0,.659,4.083,2.368,2.368,0,0,0,4.214-.018,9.483,9.483,0,0,0,.655-4.065,9.42,9.42,0,0,0-.655-4.056,2.376,2.376,0,0,0-4.214-.018A9.348,9.348,0,0,0,134.519,12.558Z" transform="translate(832 3346)" fill="#00223d"/>
  </g>
</svg>
